<?xml version="1.0" encoding="UTF-8" standalone="no"?>
<!DOCTYPE svg PUBLIC "-//W3C//DTD SVG 1.1//EN"
 "http://www.w3.org/Graphics/SVG/1.1/DTD/svg11.dtd">
<!-- Generated by graphviz version 8.0.3 (0)
 -->
<!-- Title: BusStops Pages: 1 -->
<svg width="153pt" height="305pt"
 viewBox="0.00 0.00 153.00 305.00" xmlns="http://www.w3.org/2000/svg" xmlns:xlink="http://www.w3.org/1999/xlink">
<g id="graph0" class="graph" transform="scale(1 1) rotate(0) translate(4 301)">
<title>BusStops</title>
<polygon fill="white" stroke="none" points="-4,4 -4,-301 149,-301 149,4 -4,4"/>
<!-- 0 -->
<g id="node1" class="node">
<title>0</title>
<ellipse fill="#28d1e0" stroke="#28d1e0" cx="98" cy="-279" rx="18" ry="18"/>
<text text-anchor="middle" x="98" y="-275.3" font-family="Times,serif" font-size="14.00">0</text>
</g>
<!-- 1 -->
<g id="node2" class="node">
<title>1</title>
<ellipse fill="#28d1e0" stroke="#28d1e0" cx="72" cy="-192" rx="18" ry="18"/>
<text text-anchor="middle" x="72" y="-188.3" font-family="Times,serif" font-size="14.00">1</text>
</g>
<!-- 0&#45;&#45;1 -->
<g id="edge1" class="edge">
<title>0&#45;&#45;1</title>
<path fill="none" stroke="#aa0000" d="M92.99,-261.61C88.41,-246.66 81.68,-224.66 77.09,-209.63"/>
<text text-anchor="middle" x="91" y="-231.8" font-family="Times,serif" font-size="14.00">5</text>
</g>
<!-- 2 -->
<g id="node3" class="node">
<title>2</title>
<ellipse fill="#28d1e0" stroke="#28d1e0" cx="126" cy="-192" rx="18" ry="18"/>
<text text-anchor="middle" x="126" y="-188.3" font-family="Times,serif" font-size="14.00">2</text>
</g>
<!-- 0&#45;&#45;2 -->
<g id="edge2" class="edge">
<title>0&#45;&#45;2</title>
<path fill="none" stroke="black" d="M103.4,-261.61C108.33,-246.66 115.57,-224.66 120.52,-209.63"/>
<text text-anchor="middle" x="122.5" y="-231.8" font-family="Times,serif" font-size="14.00">10</text>
</g>
<!-- 3 -->
<g id="node4" class="node">
<title>3</title>
<ellipse fill="#28d1e0" stroke="#28d1e0" cx="18" cy="-105" rx="18" ry="18"/>
<text text-anchor="middle" x="18" y="-101.3" font-family="Times,serif" font-size="14.00">3</text>
</g>
<!-- 1&#45;&#45;3 -->
<g id="edge3" class="edge">
<title>1&#45;&#45;3</title>
<path fill="none" stroke="black" d="M62.59,-176.19C52.68,-160.59 37.17,-136.17 27.3,-120.64"/>
<text text-anchor="middle" x="54" y="-144.8" font-family="Times,serif" font-size="14.00">8</text>
</g>
<!-- 4 -->
<g id="node5" class="node">
<title>4</title>
<ellipse fill="#28d1e0" stroke="#28d1e0" cx="72" cy="-105" rx="18" ry="18"/>
<text text-anchor="middle" x="72" y="-101.3" font-family="Times,serif" font-size="14.00">4</text>
</g>
<!-- 1&#45;&#45;4 -->
<g id="edge4" class="edge">
<title>1&#45;&#45;4</title>
<path fill="none" stroke="#aa0000" d="M72,-173.8C72,-159.15 72,-138.19 72,-123.47"/>
<text text-anchor="middle" x="77" y="-144.8" font-family="Times,serif" font-size="14.00">4</text>
</g>
<!-- 6 -->
<g id="node7" class="node">
<title>6</title>
<ellipse fill="#28d1e0" stroke="#28d1e0" cx="126" cy="-105" rx="18" ry="18"/>
<text text-anchor="middle" x="126" y="-101.3" font-family="Times,serif" font-size="14.00">6</text>
</g>
<!-- 2&#45;&#45;6 -->
<g id="edge5" class="edge">
<title>2&#45;&#45;6</title>
<path fill="none" stroke="black" d="M126,-173.8C126,-159.15 126,-138.19 126,-123.47"/>
<text text-anchor="middle" x="135.5" y="-144.8" font-family="Times,serif" font-size="14.00">12</text>
</g>
<!-- 5 -->
<g id="node6" class="node">
<title>5</title>
<ellipse fill="#28d1e0" stroke="#28d1e0" cx="24" cy="-18" rx="18" ry="18"/>
<text text-anchor="middle" x="24" y="-14.3" font-family="Times,serif" font-size="14.00">5</text>
</g>
<!-- 3&#45;&#45;5 -->
<g id="edge6" class="edge">
<title>3&#45;&#45;5</title>
<path fill="none" stroke="black" d="M19.21,-86.8C20.26,-72.05 21.75,-50.92 22.79,-36.18"/>
<text text-anchor="middle" x="24" y="-57.8" font-family="Times,serif" font-size="14.00">7</text>
</g>
<!-- 4&#45;&#45;5 -->
<g id="edge7" class="edge">
<title>4&#45;&#45;5</title>
<path fill="none" stroke="black" d="M63.42,-88.8C54.68,-73.33 41.22,-49.49 32.51,-34.06"/>
<text text-anchor="middle" x="56" y="-57.8" font-family="Times,serif" font-size="14.00">3</text>
</g>
<!-- 7 -->
<g id="node8" class="node">
<title>7</title>
<ellipse fill="#28d1e0" stroke="#28d1e0" cx="84" cy="-18" rx="18" ry="18"/>
<text text-anchor="middle" x="84" y="-14.3" font-family="Times,serif" font-size="14.00">7</text>
</g>
<!-- 4&#45;&#45;7 -->
<g id="edge8" class="edge">
<title>4&#45;&#45;7</title>
<path fill="none" stroke="#aa0000" d="M74.43,-86.8C76.51,-72.05 79.49,-50.92 81.58,-36.18"/>
<text text-anchor="middle" x="83" y="-57.8" font-family="Times,serif" font-size="14.00">9</text>
</g>
</g>
</svg>
