<?xml version="1.0" encoding="UTF-8" standalone="no"?>
<!DOCTYPE svg PUBLIC "-//W3C//DTD SVG 1.1//EN"
 "http://www.w3.org/Graphics/SVG/1.1/DTD/svg11.dtd">
<!-- Generated by graphviz version 8.0.1 (0)
 -->
<!-- Title: BusStops Pages: 1 -->
<svg width="152pt" height="305pt"
 viewBox="0.00 0.00 152.00 305.00" xmlns="http://www.w3.org/2000/svg" xmlns:xlink="http://www.w3.org/1999/xlink">
<g id="graph0" class="graph" transform="scale(1 1) rotate(0) translate(4 301)">
<title>BusStops</title>
<polygon fill="white" stroke="none" points="-4,4 -4,-301 148,-301 148,4 -4,4"/>
<!-- 0 -->
<g id="node1" class="node">
<title>0</title>
<ellipse fill="#28d1e0" stroke="#28d1e0" cx="73" cy="-279" rx="18" ry="18"/>
<text text-anchor="middle" x="73" y="-275.3" font-family="Times,serif" font-size="14.00">0</text>
</g>
<!-- 1 -->
<g id="node2" class="node">
<title>1</title>
<ellipse fill="#28d1e0" stroke="#28d1e0" cx="47" cy="-192" rx="18" ry="18"/>
<text text-anchor="middle" x="47" y="-188.3" font-family="Times,serif" font-size="14.00">1</text>
</g>
<!-- 0&#45;&#45;1 -->
<g id="edge1" class="edge">
<title>0&#45;&#45;1</title>
<path fill="none" stroke="red" d="M67.99,-261.61C63.41,-246.66 56.68,-224.66 52.09,-209.63"/>
<text text-anchor="middle" x="67" y="-231.8" font-family="Times,serif" font-size="14.00">5</text>
</g>
<!-- 2 -->
<g id="node3" class="node">
<title>2</title>
<ellipse fill="#28d1e0" stroke="#28d1e0" cx="101" cy="-192" rx="18" ry="18"/>
<text text-anchor="middle" x="101" y="-188.3" font-family="Times,serif" font-size="14.00">2</text>
</g>
<!-- 0&#45;&#45;2 -->
<g id="edge2" class="edge">
<title>0&#45;&#45;2</title>
<path fill="none" stroke="black" d="M78.4,-261.61C83.33,-246.66 90.57,-224.66 95.52,-209.63"/>
<text text-anchor="middle" x="97.5" y="-231.8" font-family="Times,serif" font-size="14.00">10</text>
</g>
<!-- 3 -->
<g id="node4" class="node">
<title>3</title>
<ellipse fill="#28d1e0" stroke="#28d1e0" cx="18" cy="-105" rx="18" ry="18"/>
<text text-anchor="middle" x="18" y="-101.3" font-family="Times,serif" font-size="14.00">3</text>
</g>
<!-- 1&#45;&#45;3 -->
<g id="edge3" class="edge">
<title>1&#45;&#45;3</title>
<path fill="none" stroke="black" d="M41.41,-174.61C36.27,-159.56 28.7,-137.37 23.57,-122.34"/>
<text text-anchor="middle" x="40" y="-144.8" font-family="Times,serif" font-size="14.00">8</text>
</g>
<!-- 4 -->
<g id="node5" class="node">
<title>4</title>
<ellipse fill="#28d1e0" stroke="#28d1e0" cx="72" cy="-105" rx="18" ry="18"/>
<text text-anchor="middle" x="72" y="-101.3" font-family="Times,serif" font-size="14.00">4</text>
</g>
<!-- 1&#45;&#45;4 -->
<g id="edge4" class="edge">
<title>1&#45;&#45;4</title>
<path fill="none" stroke="red" d="M51.02,-174.25C53.44,-164.49 56.69,-151.99 60,-141 61.85,-134.85 64.09,-128.16 66.12,-122.3"/>
<text text-anchor="middle" x="65" y="-144.8" font-family="Times,serif" font-size="14.00">4</text>
</g>
<!-- 2&#45;&#45;4 -->
<g id="edge5" class="edge">
<title>2&#45;&#45;4</title>
<path fill="none" stroke="black" d="M95.41,-174.61C90.27,-159.56 82.7,-137.37 77.57,-122.34"/>
<text text-anchor="middle" x="93" y="-144.8" font-family="Times,serif" font-size="14.00">6</text>
</g>
<!-- 6 -->
<g id="node7" class="node">
<title>6</title>
<ellipse fill="#28d1e0" stroke="#28d1e0" cx="126" cy="-105" rx="18" ry="18"/>
<text text-anchor="middle" x="126" y="-101.3" font-family="Times,serif" font-size="14.00">6</text>
</g>
<!-- 2&#45;&#45;6 -->
<g id="edge6" class="edge">
<title>2&#45;&#45;6</title>
<path fill="none" stroke="black" d="M105.94,-174.21C110.32,-159.31 116.69,-137.65 121.07,-122.76"/>
<text text-anchor="middle" x="123.5" y="-144.8" font-family="Times,serif" font-size="14.00">12</text>
</g>
<!-- 5 -->
<g id="node6" class="node">
<title>5</title>
<ellipse fill="#28d1e0" stroke="#28d1e0" cx="24" cy="-18" rx="18" ry="18"/>
<text text-anchor="middle" x="24" y="-14.3" font-family="Times,serif" font-size="14.00">5</text>
</g>
<!-- 3&#45;&#45;5 -->
<g id="edge7" class="edge">
<title>3&#45;&#45;5</title>
<path fill="none" stroke="black" d="M17.83,-86.85C17.86,-77.19 18.12,-64.9 19,-54 19.48,-48.13 20.3,-41.74 21.14,-36.04"/>
<text text-anchor="middle" x="24" y="-57.8" font-family="Times,serif" font-size="14.00">7</text>
</g>
<!-- 4&#45;&#45;5 -->
<g id="edge8" class="edge">
<title>4&#45;&#45;5</title>
<path fill="none" stroke="black" d="M63.42,-88.8C54.68,-73.33 41.22,-49.49 32.51,-34.06"/>
<text text-anchor="middle" x="56" y="-57.8" font-family="Times,serif" font-size="14.00">3</text>
</g>
<!-- 7 -->
<g id="node8" class="node">
<title>7</title>
<ellipse fill="#28d1e0" stroke="#28d1e0" cx="84" cy="-18" rx="18" ry="18"/>
<text text-anchor="middle" x="84" y="-14.3" font-family="Times,serif" font-size="14.00">7</text>
</g>
<!-- 4&#45;&#45;7 -->
<g id="edge9" class="edge">
<title>4&#45;&#45;7</title>
<path fill="none" stroke="red" d="M74.43,-86.8C76.51,-72.05 79.49,-50.92 81.58,-36.18"/>
<text text-anchor="middle" x="83" y="-57.8" font-family="Times,serif" font-size="14.00">9</text>
</g>
</g>
</svg>
